{"title":"I Spit on Your Grave 2 2013 BRRip 720p x264 AAC - PRiSTiNE [P2PD","uid":8893908,"size":632799069,"categoryP":"video","categoryS":"hd___movies","magnet":"?xt=urn:btih:40c15cc571733ec79fd948697f90f7cd6d4820b3&amp;dn=I+Spit+on+Your+Grave+2+2013+BRRip+720p+x264+AAC+-+PRiSTiNE+%5BP2PD&amp;tr=udp%3A%2F%2Ftracker.openbittorrent.com%3A80&amp;tr=udp%3A%2F%2Fopen.demonii.com%3A1337&amp;tr=udp%3A%2F%2Ftracker.coppersurfer.tk%3A6969&amp;tr=udp%3A%2F%2Fexodus.desync.com%3A6969","seeders":1,"leechers":0,"uploader":"ValidusVyto","files":-1,"time":1378652671,"description":"_______ Visit us at our Semi Public Bittorrent Community ________\n  &lt;a href=&quot;\nhttp://p2pdl.com&quot; rel=&quot;nofollow&quot; target=&quot;_NEW&quot;&gt;\nhttp://p2pdl.com&lt;/a&gt;  _____________________________ &lt;a href=&quot; http://p2pdl.com&quot; rel=&quot;nofollow&quot; target=&quot;_NEW&quot;&gt; http://p2pdl.com&lt;/a&gt;\n\n\n\nI Spit on Your Grave 2 2013 BRRip 720p x264 AAC - PRiSTiNE\n\n\nGenre: Crime | Horror | Thriller\nPlot: Katie is trying to make it in the cutthroat world of modeling. When she\ninnocently accepts an offer to have new photos taken for her portfolio, the\nexperience quickly turns into an ... \nDirector: Steven R. Monroe\nStars:Jemma Dallender, Joe Absolom, Yavor Baharov.\nRated: R for strong sadistic violence, torture and rape, graphic nudity, language\nand some drug content.\n\n\nInfo:  &lt;a href=&quot;\nhttp://www.imdb.com/title/tt2537176/&quot; rel=&quot;nofollow&quot; target=&quot;_NEW&quot;&gt;\nhttp://www.imdb.com/title/tt2537176/&lt;/a&gt;\n\nTrailer:\n\n\nFormat                         : MPEG-4\nFile size                      : 596 MiB\nDuration                       : 1h 46mn\nOverall bit rate               : 784 Kbps\n\nVideo\nFormat                         : AVC\nBit rate                       : 702 Kbps\nWidth                          : 1 264 pixels\nHeight                         : 528 pixels\nDisplay aspect ratio           : 2.40:1\nFrame rate mode                : Constant\nFrame rate                     : 23.976 fps\nBit depth                      : 10 bits\nStream size                    : 533 MiB (89%)\nWriting library                : x264 core 138 r2358\n\nAudio\nFormat                         : AAC\nBit rate mode                  : Variable\nBit rate                       : 79.0 Kbps\nChannel(s)                     : 2 channels\nChannel positions              : Front: L R\nSampling rate                  : 48.0 KHz\nStream size                    : 60.0 MiB (10%)\nLanguage                       : English\n\nSubtitle                       : Yes(English)\n\n\n----------------------------------------------------------------------------------------------------\n\n\nRecommend to you to use latest version of VLC player. Install K-Lite Codec Pack or shark007 codecs\nin case of any kind of problem in playback (For non-VLC Media Player users). Alternatively, install\nCore AVC codecs, the fastest decoder that there is coupled with Community Center Codec Pack and play\non Windows Media Player Classic. Check sample to be sure.\nEnjoy!\n\nEncoder Notes:Looking For Early Access To Anything You Can Provide DVDScr, R5, DVDR, BluRay, Direct\nAudio, Music Releases and Seedboxes. We require dedicated servers, so as to do more \nand fast releases of movies.\nIf You Got anything to offer please contact us at &quot;&lt;a class=&quot;__cf_email__&quot; href=&quot;/cdn-cgi/l/email-protection&quot; data-cfemail=&quot;4e3e3c290e263b3d26602d2123&quot;&gt;[email&amp;#160;protected]&lt;/a&gt;&lt;script cf-hash='f9e31' type=&quot;text/javascript&quot;&gt;\n/* &lt;![CDATA[ */!function(){try{var t=&quot;currentScript&quot;in document?document.currentScript:function(){for(var t=document.getElementsByTagName(&quot;script&quot;),e=t.length;e--;)if(t[e].getAttribute(&quot;cf-hash&quot;))return t[e]}();if(t&amp;&amp;t.previousSibling){var e,r,n,i,c=t.previousSibling,a=c.getAttribute(&quot;data-cfemail&quot;);if(a){for(e=&quot;&quot;,r=parseInt(a.substr(0,2),16),n=2;a.length-n;n+=2)i=parseInt(a.substr(n,2),16)^r,e+=String.fromCharCode(i);e=document.createTextNode(e),c.parentNode.replaceChild(e,c)}}}catch(u){}}();/* ]]&gt; */&lt;/script&gt;&quot;.\n\nFace book Fan Page:  \nSearch P2PDL on FB and hit like!!!\n\nFor more of our team uploads visit @                                             &lt;a href=&quot;\nhttp://thepiratebay.se/user/vitamin_x&quot; rel=&quot;nofollow&quot; target=&quot;_NEW&quot;&gt;\nhttp://thepiratebay.se/user/vitamin_x&lt;/a&gt;\t\n\t\t","torrent":{"xt":"urn:btih:40c15cc571733ec79fd948697f90f7cd6d4820b3","amp;dn":"I+Spit+on+Your+Grave+2+2013+BRRip+720p+x264+AAC+-+PRiSTiNE+%5BP2PD","amp;tr":["udp%3A%2F%2Ftracker.openbittorrent.com%3A80","udp%3A%2F%2Fopen.demonii.com%3A1337","udp%3A%2F%2Ftracker.coppersurfer.tk%3A6969","udp%3A%2F%2Fexodus.desync.com%3A6969"],"infoHash":"40c15cc571733ec79fd948697f90f7cd6d4820b3","infoHashBuffer":{"type":"Buffer","data":[64,193,92,197,113,115,62,199,159,217,72,105,127,144,247,205,109,72,32,179]},"announce":[],"urlList":[]}}